<svg width="752" height="224" viewBox="0 0 752 224" fill="none" xmlns="http://www.w3.org/2000/svg">
<path d="M104.122 68.872C105.333 68.872 106.202 69.1353 106.729 69.662C107.308 70.1887 107.598 70.8733 107.598 71.716C107.598 73.0853 107.177 74.2967 106.334 75.35C105.544 76.4033 104.28 76.9563 102.542 77.009C98.3813 77.0617 94.642 76.7457 91.324 76.061C87.6373 83.9083 83.187 90.439 77.973 95.653C72.8117 100.814 67.703 103.395 62.647 103.395C58.0123 103.395 54.5363 100.946 52.219 96.048C49.9017 91.0973 48.585 84.4877 48.269 76.219C45.109 85.383 41.5277 92.2033 37.525 96.68C33.575 101.157 29.3617 103.395 24.885 103.395C19.829 103.395 16.0107 100.261 13.43 93.994C10.8493 87.674 9.559 79.1947 9.559 68.556C9.559 60.814 10.2437 52.3083 11.613 43.039C11.9817 40.4057 12.64 38.5887 13.588 37.588C14.5887 36.5347 16.1423 36.008 18.249 36.008C19.829 36.008 21.0403 36.3503 21.883 37.035C22.7783 37.7197 23.226 38.9837 23.226 40.827C23.226 41.1957 23.1733 41.9067 23.068 42.96C21.488 53.7567 20.698 62.947 20.698 70.531C20.698 77.5883 21.3037 83.0393 22.515 86.884C23.7263 90.7287 25.359 92.651 27.413 92.651C29.2563 92.651 31.4683 90.7287 34.049 86.884C36.6823 82.9867 39.2893 77.246 41.87 69.662C44.4507 62.0253 46.6363 52.9403 48.427 42.407C48.8483 39.9843 49.612 38.3253 50.718 37.43C51.8767 36.482 53.4303 36.008 55.379 36.008C57.0117 36.008 58.1967 36.3767 58.934 37.114C59.724 37.7987 60.119 38.852 60.119 40.274C60.119 41.1167 60.0663 41.775 59.961 42.249C58.4863 50.8337 57.749 59.4183 57.749 68.003C57.749 73.849 57.9333 78.51 58.302 81.986C58.7233 85.462 59.487 88.1217 60.593 89.965C61.7517 91.7557 63.4107 92.651 65.57 92.651C68.098 92.651 70.9157 90.755 74.023 86.963C77.1303 83.1183 79.9743 78.352 82.555 72.664C79.3423 70.6627 76.9197 68.082 75.287 64.922C73.6543 61.7093 72.838 58.0227 72.838 53.862C72.838 49.7013 73.47 46.199 74.734 43.355C76.0507 40.4583 77.815 38.299 80.027 36.877C82.2917 35.455 84.7933 34.744 87.532 34.744C90.9027 34.744 93.5623 35.9553 95.511 38.378C97.5123 40.8007 98.513 44.1187 98.513 48.332C98.513 54.2833 97.2227 60.893 94.642 68.161C97.328 68.635 100.488 68.872 104.122 68.872ZM80.817 53.309C80.817 58.4703 82.476 62.2887 85.794 64.764C87.848 58.8653 88.875 53.9937 88.875 50.149C88.875 47.937 88.5853 46.3307 88.006 45.33C87.4267 44.2767 86.6367 43.75 85.636 43.75C84.214 43.75 83.0553 44.5927 82.16 46.278C81.2647 47.9107 80.817 50.2543 80.817 53.309ZM143.764 85.383C144.449 85.383 144.975 85.699 145.344 86.331C145.765 86.963 145.976 87.832 145.976 88.938C145.976 91.0447 145.476 92.6773 144.475 93.836C142.052 96.6273 139.551 98.9183 136.97 100.709C134.442 102.5 131.545 103.395 128.28 103.395C125.594 103.395 123.566 102.631 122.197 101.104C120.828 99.524 120.143 97.2593 120.143 94.31C120.143 92.8353 120.512 90.202 121.249 86.41C121.934 83.092 122.276 80.801 122.276 79.537C122.276 78.6943 121.986 78.273 121.407 78.273C120.722 78.273 119.748 79.1683 118.484 80.959C117.22 82.697 115.956 85.0143 114.692 87.911C113.428 90.8077 112.401 93.8623 111.611 97.075C110.61 101.288 108.135 103.395 104.185 103.395C102.605 103.395 101.552 102.842 101.025 101.736C100.551 100.577 100.314 98.5233 100.314 95.574C100.314 93.8887 100.34 92.5457 100.393 91.545L100.472 85.225C100.472 77.1143 101.288 68.6613 102.921 59.866C104.606 51.0707 107.055 43.6973 110.268 37.746C113.533 31.742 117.431 28.74 121.96 28.74C124.383 28.74 126.331 29.7933 127.806 31.9C129.333 33.954 130.097 36.64 130.097 39.958C130.097 45.2773 128.543 50.8073 125.436 56.548C122.329 62.236 117.273 68.8983 110.268 76.535C110.11 79.2737 110.031 82.0913 110.031 84.988C111.769 80.5113 113.691 76.8773 115.798 74.086C117.957 71.242 120.064 69.2143 122.118 68.003C124.225 66.7917 126.147 66.186 127.885 66.186C131.308 66.186 133.02 67.8977 133.02 71.321C133.02 73.375 132.441 77.088 131.282 82.46C130.281 87.042 129.781 90.0703 129.781 91.545C129.781 93.6517 130.545 94.705 132.072 94.705C133.125 94.705 134.363 94.073 135.785 92.809C137.26 91.4923 139.208 89.3857 141.631 86.489C142.263 85.7517 142.974 85.383 143.764 85.383ZM120.301 36.561C119.353 36.561 118.3 37.9303 117.141 40.669C115.982 43.355 114.85 47.0153 113.744 51.65C112.691 56.232 111.822 61.2353 111.137 66.66C114.402 62.8153 117.088 58.6283 119.195 54.099C121.354 49.5697 122.434 45.4617 122.434 41.775C122.434 40.0897 122.25 38.7993 121.881 37.904C121.512 37.0087 120.986 36.561 120.301 36.561ZM174.807 85.383C175.492 85.383 176.019 85.699 176.387 86.331C176.809 86.963 177.019 87.832 177.019 88.938C177.019 91.0447 176.519 92.6773 175.518 93.836C173.57 96.206 170.805 98.3917 167.223 100.393C163.695 102.394 159.903 103.395 155.847 103.395C150.317 103.395 146.025 101.894 142.97 98.892C139.916 95.89 138.388 91.782 138.388 86.568C138.388 82.934 139.152 79.5633 140.679 76.456C142.207 73.296 144.313 70.7943 146.999 68.951C149.738 67.1077 152.819 66.186 156.242 66.186C159.297 66.186 161.746 67.1077 163.589 68.951C165.433 70.7417 166.354 73.1907 166.354 76.298C166.354 79.932 165.038 83.0657 162.404 85.699C159.824 88.2797 155.426 90.3337 149.211 91.861C150.528 94.2837 153.03 95.495 156.716 95.495C159.086 95.495 161.772 94.6787 164.774 93.046C167.829 91.3607 170.462 89.175 172.674 86.489C173.306 85.7517 174.017 85.383 174.807 85.383ZM154.899 73.928C152.951 73.928 151.292 75.0603 149.922 77.325C148.606 79.5897 147.947 82.3283 147.947 85.541V85.699C151.055 84.9617 153.504 83.8557 155.294 82.381C157.085 80.9063 157.98 79.1947 157.98 77.246C157.98 76.2453 157.691 75.4553 157.111 74.876C156.585 74.244 155.847 73.928 154.899 73.928ZM176.196 103.395C174.195 103.395 172.773 102.342 171.93 100.235C171.14 98.1283 170.745 94.7577 170.745 90.123C170.745 83.2763 171.719 76.772 173.668 70.61C174.142 69.0827 174.906 67.9767 175.959 67.292C177.065 66.5547 178.592 66.186 180.541 66.186C181.594 66.186 182.332 66.3177 182.753 66.581C183.174 66.8443 183.385 67.3447 183.385 68.082C183.385 68.9247 182.99 70.8207 182.2 73.77C181.673 75.8767 181.252 77.72 180.936 79.3C180.62 80.88 180.357 82.8287 180.146 85.146C181.884 80.6167 183.833 76.93 185.992 74.086C188.151 71.242 190.258 69.2143 192.312 68.003C194.419 66.7917 196.341 66.186 198.079 66.186C201.502 66.186 203.214 67.8977 203.214 71.321C203.214 72.0057 202.977 73.6647 202.503 76.298C202.082 78.4047 201.871 79.7213 201.871 80.248C201.871 82.0913 202.529 83.013 203.846 83.013C205.321 83.013 207.217 81.8543 209.534 79.537C210.219 78.8523 210.93 78.51 211.667 78.51C212.352 78.51 212.878 78.826 213.247 79.458C213.668 80.0373 213.879 80.8273 213.879 81.828C213.879 83.7767 213.352 85.304 212.299 86.41C210.824 87.9373 209.086 89.254 207.085 90.36C205.136 91.4133 203.056 91.94 200.844 91.94C198.053 91.94 195.92 91.229 194.445 89.807C193.023 88.385 192.312 86.4627 192.312 84.04C192.312 83.25 192.391 82.46 192.549 81.67C192.654 80.6167 192.707 79.9057 192.707 79.537C192.707 78.6943 192.417 78.273 191.838 78.273C191.048 78.273 189.995 79.1683 188.678 80.959C187.414 82.697 186.15 85.0143 184.886 87.911C183.622 90.8077 182.595 93.8623 181.805 97.075C181.226 99.5503 180.541 101.236 179.751 102.131C179.014 102.974 177.829 103.395 176.196 103.395ZM234.82 87.753C235.505 87.753 236.031 88.069 236.4 88.701C236.821 89.333 237.032 90.202 237.032 91.308C237.032 93.204 236.584 94.8367 235.689 96.206C234.214 98.4707 232.266 100.235 229.843 101.499C227.473 102.763 224.629 103.395 221.311 103.395C216.255 103.395 212.331 101.894 209.54 98.892C206.749 95.8373 205.353 91.7293 205.353 86.568C205.353 82.934 206.117 79.5633 207.644 76.456C209.171 73.296 211.278 70.7943 213.964 68.951C216.703 67.1077 219.784 66.186 223.207 66.186C226.262 66.186 228.711 67.1077 230.554 68.951C232.397 70.7417 233.319 73.1907 233.319 76.298C233.319 79.932 232.002 83.0657 229.369 85.699C226.788 88.2797 222.364 90.3337 216.097 91.861C217.361 94.2837 219.494 95.495 222.496 95.495C224.655 95.495 226.42 94.9947 227.789 93.994C229.211 92.9933 230.844 91.308 232.687 88.938C233.319 88.148 234.03 87.753 234.82 87.753ZM221.864 73.928C219.915 73.928 218.256 75.0603 216.887 77.325C215.57 79.5897 214.912 82.3283 214.912 85.541V85.699C218.019 84.9617 220.468 83.8557 222.259 82.381C224.05 80.9063 224.945 79.1947 224.945 77.246C224.945 76.2453 224.655 75.4553 224.076 74.876C223.549 74.244 222.812 73.928 221.864 73.928ZM295.159 85.383C295.843 85.383 296.37 85.699 296.739 86.331C297.16 86.963 297.371 87.832 297.371 88.938C297.371 91.0447 296.87 92.6773 295.87 93.836C293.605 96.6273 291.13 98.9183 288.444 100.709C285.758 102.5 282.677 103.395 279.201 103.395C268.457 103.395 263.085 95.8373 263.085 80.722C263.085 78.4047 263.164 76.061 263.322 73.691H260.241C258.661 73.691 257.581 73.4013 257.002 72.822C256.475 72.2427 256.212 71.321 256.212 70.057C256.212 67.1077 257.397 65.633 259.767 65.633H264.27C265.165 59.8397 266.534 54.5467 268.378 49.754C270.221 44.9613 272.433 41.143 275.014 38.299C277.647 35.455 280.465 34.033 283.467 34.033C285.679 34.033 287.417 35.0073 288.681 36.956C289.945 38.9047 290.577 41.3537 290.577 44.303C290.577 52.4663 287.153 59.5763 280.307 65.633H289.155C289.997 65.633 290.603 65.8173 290.972 66.186C291.34 66.5547 291.525 67.2393 291.525 68.24C291.525 71.874 288.549 73.691 282.598 73.691H272.96C272.854 76.3243 272.802 78.3783 272.802 79.853C272.802 85.3303 273.434 89.175 274.698 91.387C276.014 93.599 278.068 94.705 280.86 94.705C283.124 94.705 285.126 94.0203 286.864 92.651C288.602 91.2817 290.656 89.2277 293.026 86.489C293.658 85.7517 294.369 85.383 295.159 85.383ZM281.334 41.617C280.544 41.617 279.648 42.6177 278.648 44.619C277.7 46.5677 276.778 49.3063 275.883 52.835C275.04 56.311 274.329 60.182 273.75 64.448C276.857 61.762 279.174 58.76 280.702 55.442C282.282 52.0713 283.072 49.0167 283.072 46.278C283.072 43.1707 282.492 41.617 281.334 41.617ZM334.783 85.383C335.468 85.383 335.995 85.699 336.363 86.331C336.785 86.963 336.995 87.832 336.995 88.938C336.995 91.0447 336.495 92.6773 335.494 93.836C333.072 96.6273 330.57 98.9183 327.989 100.709C325.461 102.5 322.565 103.395 319.299 103.395C316.613 103.395 314.586 102.631 313.216 101.104C311.847 99.524 311.162 97.2593 311.162 94.31C311.162 92.8353 311.531 90.202 312.268 86.41C312.953 83.092 313.295 80.801 313.295 79.537C313.295 78.6943 313.006 78.273 312.426 78.273C311.742 78.273 310.767 79.1683 309.503 80.959C308.239 82.697 306.975 85.0143 305.711 87.911C304.447 90.8077 303.42 93.8623 302.63 97.075C301.63 101.288 299.154 103.395 295.204 103.395C293.624 103.395 292.571 102.842 292.044 101.736C291.57 100.577 291.333 98.5233 291.333 95.574C291.333 93.8887 291.36 92.5457 291.412 91.545L291.491 85.225C291.491 77.1143 292.308 68.6613 293.94 59.866C295.626 51.0707 298.075 43.6973 301.287 37.746C304.553 31.742 308.45 28.74 312.979 28.74C315.402 28.74 317.351 29.7933 318.825 31.9C320.353 33.954 321.116 36.64 321.116 39.958C321.116 45.2773 319.563 50.8073 316.455 56.548C313.348 62.236 308.292 68.8983 301.287 76.535C301.129 79.2737 301.05 82.0913 301.05 84.988C302.788 80.5113 304.711 76.8773 306.817 74.086C308.977 71.242 311.083 69.2143 313.137 68.003C315.244 66.7917 317.166 66.186 318.904 66.186C322.328 66.186 324.039 67.8977 324.039 71.321C324.039 73.375 323.46 77.088 322.301 82.46C321.301 87.042 320.8 90.0703 320.8 91.545C320.8 93.6517 321.564 94.705 323.091 94.705C324.145 94.705 325.382 94.073 326.804 92.809C328.279 91.4923 330.228 89.3857 332.65 86.489C333.282 85.7517 333.993 85.383 334.783 85.383ZM311.32 36.561C310.372 36.561 309.319 37.9303 308.16 40.669C307.002 43.355 305.869 47.0153 304.763 51.65C303.71 56.232 302.841 61.2353 302.156 66.66C305.422 62.8153 308.108 58.6283 310.214 54.099C312.374 49.5697 313.453 45.4617 313.453 41.775C313.453 40.0897 313.269 38.7993 312.9 37.904C312.532 37.0087 312.005 36.561 311.32 36.561ZM358.875 87.753C359.559 87.753 360.086 88.069 360.455 88.701C360.876 89.333 361.087 90.202 361.087 91.308C361.087 93.204 360.639 94.8367 359.744 96.206C358.269 98.4707 356.32 100.235 353.898 101.499C351.528 102.763 348.684 103.395 345.366 103.395C340.31 103.395 336.386 101.894 333.595 98.892C330.803 95.8373 329.408 91.7293 329.408 86.568C329.408 82.934 330.171 79.5633 331.699 76.456C333.226 73.296 335.333 70.7943 338.019 68.951C340.757 67.1077 343.838 66.186 347.262 66.186C350.316 66.186 352.765 67.1077 354.609 68.951C356.452 70.7417 357.374 73.1907 357.374 76.298C357.374 79.932 356.057 83.0657 353.424 85.699C350.843 88.2797 346.419 90.3337 340.152 91.861C341.416 94.2837 343.549 95.495 346.551 95.495C348.71 95.495 350.474 94.9947 351.844 93.994C353.266 92.9933 354.898 91.308 356.742 88.938C357.374 88.148 358.085 87.753 358.875 87.753ZM345.919 73.928C343.97 73.928 342.311 75.0603 340.942 77.325C339.625 79.5897 338.967 82.3283 338.967 85.541V85.699C342.074 84.9617 344.523 83.8557 346.314 82.381C348.104 80.9063 349 79.1947 349 77.246C349 76.2453 348.71 75.4553 348.131 74.876C347.604 74.244 346.867 73.928 345.919 73.928ZM406.021 103.632C399.016 103.632 393.407 102.315 389.194 99.682C384.98 96.996 382.874 92.9143 382.874 87.437C382.874 84.5403 383.374 82.3283 384.375 80.801C385.375 79.2737 386.85 78.51 388.799 78.51C390.221 78.51 391.379 78.8787 392.275 79.616C393.17 80.3533 393.618 81.3013 393.618 82.46C393.618 83.5133 393.539 84.435 393.381 85.225C393.381 85.4357 393.328 85.8043 393.223 86.331C393.17 86.8577 393.144 87.4107 393.144 87.99C393.144 90.36 394.329 92.1243 396.699 93.283C399.121 94.4417 402.492 95.021 406.811 95.021C411.287 95.021 414.79 94.231 417.318 92.651C419.846 91.0183 421.11 88.7537 421.11 85.857C421.11 84.0663 420.53 82.539 419.372 81.275C418.213 79.9583 416.765 78.8787 415.027 78.036C413.289 77.1407 410.84 76.061 407.68 74.797C403.624 73.217 400.306 71.716 397.726 70.294C395.198 68.872 393.012 66.9497 391.169 64.527C389.378 62.0517 388.483 58.997 388.483 55.363C388.483 51.571 389.483 48.2003 391.485 45.251C393.539 42.3017 396.462 40.0107 400.254 38.378C404.098 36.7453 408.601 35.929 413.763 35.929C417.607 35.929 421.136 36.5083 424.349 37.667C427.561 38.773 430.116 40.4847 432.012 42.802C433.96 45.1193 434.935 47.9633 434.935 51.334C434.935 54.652 434.434 57.1537 433.434 58.839C432.433 60.5243 430.958 61.367 429.01 61.367C427.64 61.367 426.482 60.9457 425.534 60.103C424.638 59.2603 424.191 58.2597 424.191 57.101C424.191 56.1003 424.27 55.1787 424.428 54.336C424.586 52.756 424.665 51.7553 424.665 51.334C424.665 49.122 423.585 47.4367 421.426 46.278C419.266 45.1193 416.58 44.54 413.368 44.54C408.838 44.54 405.362 45.3827 402.94 47.068C400.57 48.7007 399.385 51.018 399.385 54.02C399.385 56.0213 399.99 57.733 401.202 59.155C402.466 60.577 404.019 61.762 405.863 62.71C407.706 63.658 410.287 64.7903 413.605 66.107C417.607 67.7397 420.82 69.2143 423.243 70.531C425.665 71.8477 427.719 73.6383 429.405 75.903C431.143 78.1677 432.012 80.959 432.012 84.277C432.012 90.4917 429.642 95.2843 424.902 98.655C420.214 101.973 413.921 103.632 406.021 103.632ZM483.645 85.383C484.33 85.383 484.857 85.699 485.225 86.331C485.647 86.963 485.857 87.832 485.857 88.938C485.857 91.0447 485.357 92.6773 484.356 93.836C481.986 96.7327 479.59 99.05 477.167 100.788C474.745 102.526 471.874 103.395 468.556 103.395C464.501 103.395 461.236 102.236 458.76 99.919C456.285 97.6017 455.047 94.5207 455.047 90.676C455.047 88.622 456.101 87.1473 458.207 86.252C460.525 85.2513 462.184 84.198 463.184 83.092C464.185 81.9333 464.685 80.5377 464.685 78.905C464.685 77.957 464.475 77.246 464.053 76.772C463.685 76.298 463.211 76.061 462.631 76.061C461.209 76.061 459.629 77.088 457.891 79.142C456.206 81.196 454.626 83.8557 453.151 87.121C451.677 90.3337 450.518 93.6517 449.675 97.075C449.096 99.5503 448.411 101.236 447.621 102.131C446.884 102.974 445.699 103.395 444.066 103.395C442.434 103.395 441.222 102.816 440.432 101.657C439.695 100.446 439.195 98.6023 438.931 96.127C438.668 93.6517 438.536 90.0177 438.536 85.225C438.536 77.1143 439.353 68.6613 440.985 59.866C442.671 51.0707 445.12 43.6973 448.332 37.746C451.598 31.742 455.495 28.74 460.024 28.74C462.447 28.74 464.396 29.7933 465.87 31.9C467.398 33.954 468.161 36.64 468.161 39.958C468.161 45.2773 466.608 50.8073 463.5 56.548C460.393 62.236 455.337 68.8983 448.332 76.535C448.174 79.2737 448.095 82.0913 448.095 84.988C450.623 78.4047 453.52 73.6383 456.785 70.689C460.051 67.687 463.105 66.186 465.949 66.186C468.583 66.186 470.689 67.0813 472.269 68.872C473.902 70.6627 474.718 72.8747 474.718 75.508C474.718 78.4047 473.981 81.0643 472.506 83.487C471.032 85.9097 468.504 88.069 464.922 89.965C465.133 91.387 465.765 92.5457 466.818 93.441C467.924 94.2837 469.241 94.705 470.768 94.705C472.401 94.705 473.981 94.073 475.508 92.809C477.036 91.545 479.037 89.4383 481.512 86.489C482.144 85.7517 482.855 85.383 483.645 85.383ZM458.365 36.561C457.417 36.561 456.364 37.9303 455.205 40.669C454.047 43.355 452.914 47.0153 451.808 51.65C450.755 56.232 449.886 61.2353 449.201 66.66C452.467 62.8153 455.153 58.6283 457.259 54.099C459.419 49.5697 460.498 45.4617 460.498 41.775C460.498 40.0897 460.314 38.7993 459.945 37.904C459.577 37.0087 459.05 36.561 458.365 36.561ZM507.139 66.186C508.351 66.186 509.193 66.344 509.667 66.66C510.141 66.976 510.378 67.5027 510.378 68.24C510.378 69.504 509.694 74.007 508.324 81.749C507.113 89.175 506.402 93.5727 506.191 94.942C504.243 108.477 501.557 119.195 498.133 127.095C494.71 134.995 490.154 138.945 484.466 138.945C481.78 138.945 479.595 138.102 477.909 136.417C476.224 134.784 475.381 132.625 475.381 129.939C475.381 127.464 475.934 124.936 477.04 122.355C478.199 119.774 480.306 116.799 483.36 113.428C486.468 110.11 490.839 106.292 496.474 101.973L496.711 100.156C497.08 98.2073 497.501 95.416 497.975 91.782C496.922 95.574 495.447 98.4707 493.551 100.472C491.655 102.421 489.654 103.395 487.547 103.395C485.177 103.395 483.229 102.315 481.701 100.156C480.227 97.944 479.489 95.2053 479.489 91.94C479.489 87.99 479.753 84.3823 480.279 81.117C480.806 77.799 481.675 74.2967 482.886 70.61C483.413 69.03 484.15 67.8977 485.098 67.213C486.046 66.5283 487.547 66.186 489.601 66.186C490.76 66.186 491.55 66.3703 491.971 66.739C492.445 67.1077 492.682 67.6607 492.682 68.398C492.682 68.8193 492.393 70.2413 491.813 72.664C491.287 74.6127 490.865 76.377 490.549 77.957C490.128 80.1163 489.759 82.1967 489.443 84.198C489.127 86.1467 488.969 87.753 488.969 89.017C488.969 91.0183 489.522 92.019 490.628 92.019C491.418 92.019 492.393 91.229 493.551 89.649C494.763 88.069 496.027 85.6727 497.343 82.46C498.713 79.2473 500.029 75.2973 501.293 70.61C501.715 69.03 502.347 67.8977 503.189 67.213C504.085 66.5283 505.401 66.186 507.139 66.186ZM485.335 131.282C486.652 131.282 488.127 129.755 489.759 126.7C491.392 123.645 493.025 118.563 494.657 111.453C490.602 114.876 487.653 117.984 485.809 120.775C484.019 123.619 483.123 126.094 483.123 128.201C483.123 129.096 483.281 129.834 483.597 130.413C483.966 130.992 484.545 131.282 485.335 131.282ZM600.665 52.44C600.665 56.9167 599.085 60.7877 595.925 64.053C592.765 67.2657 588.156 69.583 582.1 71.005C585.365 71.9003 587.84 73.375 589.526 75.429C591.211 77.4303 592.054 79.7477 592.054 82.381C592.054 86.5417 590.737 90.1493 588.104 93.204C585.523 96.2587 581.731 98.6287 576.728 100.314C571.724 101.947 565.694 102.763 558.637 102.763C556.003 102.763 553.897 102.684 552.317 102.526C552.264 104.001 551.632 105.107 550.421 105.844C549.209 106.581 547.656 106.95 545.76 106.95C543.864 106.95 542.547 106.529 541.81 105.686C541.125 104.843 540.835 103.606 540.941 101.973C541.415 94.5997 542.336 86.884 543.706 78.826C545.075 70.7153 546.813 62.8943 548.92 55.363C549.288 54.0463 550.026 53.1247 551.132 52.598C552.238 52.0713 553.686 51.808 555.477 51.808C558.689 51.808 560.296 52.7033 560.296 54.494C560.296 55.2313 560.138 56.074 559.822 57.022C558.452 61.13 557.083 66.7127 555.714 73.77C554.344 80.7747 553.37 87.4633 552.791 93.836C555.319 94.0467 557.373 94.152 558.953 94.152C566.326 94.152 571.724 93.0987 575.148 90.992C578.624 88.8327 580.362 86.094 580.362 82.776C580.362 80.4587 579.361 78.51 577.36 76.93C575.411 75.35 572.119 74.481 567.485 74.323C566.431 74.2703 565.694 74.007 565.273 73.533C564.851 73.059 564.641 72.2953 564.641 71.242C564.641 69.7147 564.957 68.477 565.589 67.529C566.221 66.581 567.379 66.0807 569.065 66.028C572.804 65.9227 576.175 65.3697 579.177 64.369C582.231 63.3683 584.628 61.9727 586.366 60.182C588.104 58.3387 588.973 56.2057 588.973 53.783C588.973 50.7283 587.472 48.332 584.47 46.594C581.468 44.8033 576.859 43.908 570.645 43.908C565.009 43.908 559.558 44.6453 554.292 46.12C549.025 47.542 544.548 49.359 540.862 51.571C539.176 52.5717 537.754 53.072 536.596 53.072C535.648 53.072 534.91 52.756 534.384 52.124C533.91 51.4393 533.673 50.5967 533.673 49.596C533.673 48.2793 533.936 47.147 534.463 46.199C535.042 45.251 536.385 44.1713 538.492 42.96C542.916 40.432 548.103 38.457 554.055 37.035C560.006 35.613 566.089 34.902 572.304 34.902C581.836 34.902 588.946 36.5083 593.634 39.721C598.321 42.9337 600.665 47.1733 600.665 52.44ZM633.686 85.383C634.371 85.383 634.897 85.699 635.266 86.331C635.687 86.963 635.898 87.832 635.898 88.938C635.898 91.0447 635.398 92.6773 634.397 93.836C632.448 96.206 629.683 98.3917 626.102 100.393C622.573 102.394 618.781 103.395 614.726 103.395C609.196 103.395 604.904 101.894 601.849 98.892C598.794 95.89 597.267 91.782 597.267 86.568C597.267 82.934 598.031 79.5633 599.558 76.456C601.085 73.296 603.192 70.7943 605.878 68.951C608.617 67.1077 611.698 66.186 615.121 66.186C618.176 66.186 620.625 67.1077 622.468 68.951C624.311 70.7417 625.233 73.1907 625.233 76.298C625.233 79.932 623.916 83.0657 621.283 85.699C618.702 88.2797 614.305 90.3337 608.09 91.861C609.407 94.2837 611.908 95.495 615.595 95.495C617.965 95.495 620.651 94.6787 623.653 93.046C626.708 91.3607 629.341 89.175 631.553 86.489C632.185 85.7517 632.896 85.383 633.686 85.383ZM613.778 73.928C611.829 73.928 610.17 75.0603 608.801 77.325C607.484 79.5897 606.826 82.3283 606.826 85.541V85.699C609.933 84.9617 612.382 83.8557 614.173 82.381C615.964 80.9063 616.859 79.1947 616.859 77.246C616.859 76.2453 616.569 75.4553 615.99 74.876C615.463 74.244 614.726 73.928 613.778 73.928ZM669.528 85.541C670.213 85.541 670.739 85.8833 671.108 86.568C671.529 87.2 671.74 88.0163 671.74 89.017C671.74 90.2283 671.556 91.1763 671.187 91.861C670.818 92.5457 670.239 93.1513 669.449 93.678C664.92 96.7327 661.602 98.9973 659.495 100.472L654.439 103.869C652.438 114.771 649.804 123.329 646.539 129.544C643.326 135.811 639.218 138.945 634.215 138.945C631.529 138.945 629.343 138.102 627.658 136.417C625.973 134.784 625.13 132.625 625.13 129.939C625.13 126.2 626.605 122.171 629.554 117.852C632.503 113.586 638.033 108.319 646.144 102.052L646.618 98.971C645.723 100.393 644.538 101.499 643.063 102.289C641.641 103.026 640.219 103.395 638.797 103.395C635.532 103.395 632.925 102.21 630.976 99.84C629.027 97.47 628.053 94.3627 628.053 90.518C628.053 86.3047 629.027 82.3283 630.976 78.589C632.925 74.797 635.505 71.7687 638.718 69.504C641.983 67.1867 645.433 66.028 649.067 66.028C650.226 66.028 650.989 66.265 651.358 66.739C651.779 67.1603 652.122 67.9503 652.385 69.109C653.386 68.8983 654.544 68.793 655.861 68.793C657.178 68.793 658.099 69.0037 658.626 69.425C659.205 69.7937 659.495 70.5573 659.495 71.716C659.495 72.348 659.469 72.8483 659.416 73.217C659.205 74.8497 658.547 78.984 657.441 85.62C657.23 86.884 656.993 88.2797 656.73 89.807C656.519 91.2817 656.282 92.8617 656.019 94.547C660.074 91.387 663.972 88.5957 667.711 86.173C668.396 85.7517 669.001 85.541 669.528 85.541ZM641.641 95.416C642.852 95.416 644.011 94.6787 645.117 93.204C646.223 91.7293 647.013 89.6227 647.487 86.884L650.015 73.375C647.856 73.4277 645.854 74.2703 644.011 75.903C642.168 77.483 640.693 79.5897 639.587 82.223C638.481 84.8563 637.928 87.6477 637.928 90.597C637.928 92.2297 638.244 93.441 638.876 94.231C639.561 95.021 640.482 95.416 641.641 95.416ZM635.084 131.282C636.401 131.282 637.875 129.702 639.508 126.542C641.193 123.382 642.8 118.352 644.327 111.453C640.272 114.929 637.349 118.063 635.558 120.854C633.767 123.645 632.872 126.094 632.872 128.201C632.872 129.096 633.03 129.834 633.346 130.413C633.715 130.992 634.294 131.282 635.084 131.282ZM676.383 60.972C674.171 60.972 672.512 60.4717 671.406 59.471C670.3 58.4177 669.747 56.9693 669.747 55.126C669.747 53.2827 670.458 51.7553 671.88 50.544C673.355 49.28 675.172 48.648 677.331 48.648C679.28 48.648 680.86 49.122 682.071 50.07C683.283 51.018 683.888 52.361 683.888 54.099C683.888 56.2057 683.204 57.891 681.834 59.155C680.465 60.3663 678.648 60.972 676.383 60.972ZM675.751 103.395C672.328 103.395 669.826 102.184 668.246 99.761C666.719 97.3383 665.955 94.1257 665.955 90.123C665.955 87.753 666.245 84.7247 666.824 81.038C667.456 77.2987 668.246 73.8227 669.194 70.61C669.668 68.9247 670.3 67.766 671.09 67.134C671.88 66.502 673.144 66.186 674.882 66.186C677.568 66.186 678.911 67.0813 678.911 68.872C678.911 70.1887 678.411 73.2433 677.41 78.036C676.146 83.8293 675.514 87.753 675.514 89.807C675.514 91.387 675.725 92.5983 676.146 93.441C676.568 94.2837 677.279 94.705 678.279 94.705C679.227 94.705 680.412 94.0467 681.834 92.73C683.256 91.4133 685.152 89.333 687.522 86.489C688.154 85.7517 688.865 85.383 689.655 85.383C690.34 85.383 690.867 85.699 691.235 86.331C691.657 86.963 691.867 87.832 691.867 88.938C691.867 91.0447 691.367 92.6773 690.366 93.836C685.152 100.209 680.281 103.395 675.751 103.395ZM691.085 103.395C689.083 103.395 687.661 102.342 686.819 100.235C686.029 98.1283 685.634 94.7577 685.634 90.123C685.634 83.2763 686.608 76.772 688.557 70.61C689.031 69.0827 689.794 67.9767 690.848 67.292C691.954 66.5547 693.481 66.186 695.43 66.186C696.483 66.186 697.22 66.3177 697.642 66.581C698.063 66.8443 698.274 67.3447 698.274 68.082C698.274 68.9247 697.879 70.8207 697.089 73.77C696.562 75.8767 696.141 77.72 695.825 79.3C695.509 80.88 695.245 82.8287 695.035 85.146C696.773 80.6167 698.721 76.93 700.881 74.086C703.04 71.242 705.147 69.2143 707.201 68.003C709.307 66.7917 711.23 66.186 712.968 66.186C716.391 66.186 718.103 67.8977 718.103 71.321C718.103 73.375 717.523 77.088 716.365 82.46C715.364 87.042 714.864 90.0703 714.864 91.545C714.864 93.6517 715.627 94.705 717.155 94.705C718.208 94.705 719.446 94.073 720.868 92.809C722.342 91.4923 724.291 89.3857 726.714 86.489C727.346 85.7517 728.057 85.383 728.847 85.383C729.531 85.383 730.058 85.699 730.427 86.331C730.848 86.963 731.059 87.832 731.059 88.938C731.059 91.0447 730.558 92.6773 729.558 93.836C727.293 96.6273 724.844 98.9183 722.211 100.709C719.63 102.5 716.681 103.395 713.363 103.395C710.677 103.395 708.649 102.631 707.28 101.104C705.91 99.524 705.226 97.2593 705.226 94.31C705.226 92.8353 705.594 90.202 706.332 86.41C707.016 83.092 707.359 80.801 707.359 79.537C707.359 78.6943 707.069 78.273 706.49 78.273C705.805 78.273 704.831 79.1683 703.567 80.959C702.355 82.697 701.091 85.0143 699.775 87.911C698.511 90.8077 697.484 93.8623 696.694 97.075C696.114 99.5503 695.43 101.236 694.64 102.131C693.902 102.974 692.717 103.395 691.085 103.395ZM739.361 105.133C736.622 105.133 734.516 104.501 733.041 103.237C731.619 101.973 730.908 100.551 730.908 98.971C730.908 97.6017 731.408 96.4167 732.409 95.416C733.41 94.4153 734.884 93.915 736.833 93.915C737.518 93.915 738.308 93.994 739.203 94.152C740.151 94.2573 740.862 94.3363 741.336 94.389C741.283 93.0197 740.967 91.7293 740.388 90.518C739.861 89.3067 739.177 88.148 738.334 87.042C737.491 85.8833 736.701 84.8827 735.964 84.04C734.331 87.1473 732.699 89.728 731.066 91.782C729.486 93.836 727.748 95.7847 725.852 97.628C724.904 98.576 723.903 99.05 722.85 99.05C722.007 99.05 721.323 98.7603 720.796 98.181C720.269 97.549 720.006 96.7853 720.006 95.89C720.006 94.8367 720.375 93.8623 721.112 92.967L722.139 91.703C725.036 88.1217 727.221 85.1723 728.696 82.855C729.644 81.3277 730.592 79.5107 731.54 77.404C732.541 75.2973 733.831 72.427 735.411 68.793C736.412 66.4757 738.492 65.317 741.652 65.317C743.127 65.317 744.154 65.4487 744.733 65.712C745.312 65.9753 745.602 66.3967 745.602 66.976C745.602 67.292 745.497 67.7923 745.286 68.477C745.075 69.1617 744.786 69.8463 744.417 70.531C743.469 72.427 742.995 74.0333 742.995 75.35C742.995 76.14 743.258 77.009 743.785 77.957C744.364 78.905 745.233 80.09 746.392 81.512C748.077 83.724 749.341 85.62 750.184 87.2C751.079 88.7273 751.527 90.4127 751.527 92.256C751.527 94.468 751 96.5747 749.947 98.576C748.946 100.525 747.524 102.105 745.681 103.316C743.838 104.527 741.731 105.133 739.361 105.133Z" fill="url(#paint0_linear_2902_3)"/>
<path d="M187.119 198.746C185.834 198.746 184.221 198.377 182.279 197.639C180.311 196.928 178.684 196.572 177.398 196.572C176.934 196.572 176.441 196.682 175.922 196.9C175.594 197.037 175.334 197.16 175.143 197.27C174.979 197.379 174.787 197.516 174.568 197.68C174.377 197.816 174.076 198.049 173.666 198.377C173.42 198.24 173.297 198.008 173.297 197.68C173.297 197.105 173.625 196.572 174.281 196.08C175.129 195.451 175.84 195.027 176.414 194.809C176.988 194.59 177.727 194.48 178.629 194.48C179.887 194.48 181.5 194.836 183.469 195.547C185.41 196.285 187.023 196.654 188.309 196.654C188.883 196.654 189.32 196.572 189.621 196.408C189.949 196.244 190.182 196.135 190.318 196.08C190.4 196.053 190.564 195.943 190.811 195.752C191.057 195.561 191.303 195.369 191.549 195.178C191.822 194.986 191.973 194.877 192 194.85C192.246 194.959 192.369 195.191 192.369 195.547C192.369 196.148 192.055 196.682 191.426 197.146C190.578 197.775 189.867 198.199 189.293 198.418C188.746 198.637 188.021 198.746 187.119 198.746ZM205.822 209.123C205.74 209.041 205.699 208.795 205.699 208.385C205.699 208.029 205.74 207.852 205.822 207.852C206.096 207.852 206.424 207.811 206.807 207.729C207.217 207.646 207.6 207.551 207.955 207.441C208.338 207.305 208.57 207.154 208.652 206.99C208.844 206.689 208.939 205.404 208.939 203.135V187.631C208.939 186.838 208.912 186.141 208.857 185.539C208.83 184.938 208.762 184.459 208.652 184.104C208.598 183.939 208.379 183.789 207.996 183.652C207.641 183.516 207.244 183.406 206.807 183.324C206.396 183.242 206.068 183.201 205.822 183.201C205.713 183.201 205.658 183.037 205.658 182.709C205.658 182.354 205.713 182.121 205.822 182.012L210.744 182.094C211.154 182.094 211.605 182.094 212.098 182.094C212.59 182.066 213.109 182.039 213.656 182.012C214.203 181.984 214.723 181.971 215.215 181.971C215.707 181.943 216.145 181.93 216.527 181.93C217.43 181.93 218.346 182.066 219.275 182.34C220.205 182.613 221.094 183.023 221.941 183.57C222.816 184.117 223.514 184.896 224.033 185.908C224.58 186.92 224.854 188.096 224.854 189.436C224.854 190.283 224.676 191.186 224.32 192.143C223.965 193.1 223.432 194.002 222.721 194.85C222.037 195.67 221.162 196.34 220.096 196.859C219.057 197.379 217.854 197.639 216.486 197.639C214.955 197.639 213.902 197.256 213.328 196.49C213.164 196.299 213.123 195.984 213.205 195.547C213.26 195.41 213.301 195.369 213.328 195.424C214.176 195.725 215.092 195.875 216.076 195.875C217.006 195.875 217.84 195.615 218.578 195.096C219.344 194.549 219.945 193.838 220.383 192.963C220.848 192.061 221.08 191.09 221.08 190.051C221.08 188.109 220.656 186.578 219.809 185.457C218.961 184.309 217.648 183.734 215.871 183.734C214.613 183.734 213.656 183.83 213 184.021C212.754 184.049 212.604 184.473 212.549 185.293C212.521 186.113 212.508 187.193 212.508 188.533V203.176C212.508 204.98 212.617 206.17 212.836 206.744C212.945 206.963 213.205 207.168 213.615 207.359C214.053 207.551 214.518 207.701 215.01 207.811C215.502 207.893 215.857 207.934 216.076 207.934C216.186 207.934 216.24 208.125 216.24 208.508C216.24 208.699 216.213 208.904 216.158 209.123C214.791 209.068 213.656 209.027 212.754 209C211.879 208.945 211.236 208.918 210.826 208.918L205.822 209.123ZM235.641 209.287C234 209.287 232.496 208.877 231.129 208.057C229.762 207.236 228.668 206.129 227.848 204.734C227.055 203.34 226.658 201.809 226.658 200.141C226.658 198.445 227.041 196.914 227.807 195.547C228.6 194.18 229.666 193.1 231.006 192.307C232.346 191.486 233.863 191.076 235.559 191.076C237.199 191.076 238.689 191.486 240.029 192.307C241.396 193.127 242.477 194.221 243.27 195.588C244.09 196.955 244.5 198.473 244.5 200.141C244.5 201.809 244.104 203.34 243.311 204.734C242.518 206.129 241.451 207.236 240.111 208.057C238.799 208.877 237.309 209.287 235.641 209.287ZM236.01 207.688C236.994 207.688 237.855 207.373 238.594 206.744C239.332 206.115 239.906 205.268 240.316 204.201C240.754 203.135 240.973 201.973 240.973 200.715C240.973 199.238 240.699 197.898 240.152 196.695C239.605 195.465 238.881 194.494 237.979 193.783C237.104 193.045 236.146 192.676 235.107 192.676C234.15 192.676 233.289 192.99 232.523 193.619C231.785 194.221 231.211 195.041 230.801 196.08C230.391 197.092 230.186 198.24 230.186 199.525C230.186 201.002 230.445 202.369 230.965 203.627C231.512 204.857 232.223 205.842 233.098 206.58C234 207.318 234.971 207.688 236.01 207.688ZM255.861 209.246C254.357 209.246 252.977 208.85 251.719 208.057C250.461 207.264 249.449 206.211 248.684 204.898C247.945 203.559 247.576 202.068 247.576 200.428C247.576 198.514 247.932 196.859 248.643 195.465C249.354 194.07 250.324 193.004 251.555 192.266C252.785 191.5 254.166 191.117 255.697 191.117C256.955 191.117 258.062 191.363 259.02 191.855C259.977 192.32 260.715 192.922 261.234 193.66C261.727 194.426 262.082 195.205 262.301 195.998C262.547 196.764 262.67 197.529 262.67 198.295C262.67 198.842 262.588 199.184 262.424 199.32C262.26 199.43 261.945 199.484 261.48 199.484H251.145C250.926 199.484 250.816 199.553 250.816 199.689C250.816 200.838 251.049 201.945 251.514 203.012C251.979 204.051 252.662 204.912 253.564 205.596C254.467 206.279 255.574 206.621 256.887 206.621C258.035 206.621 258.992 206.457 259.758 206.129C260.551 205.773 261.125 205.459 261.48 205.186L261.768 204.98C261.932 204.98 262.014 205.158 262.014 205.514C262.014 205.705 261.932 205.951 261.768 206.252C261.221 207.018 260.414 207.715 259.348 208.344C258.281 208.945 257.119 209.246 255.861 209.246ZM251.145 197.762H259.143C259.279 197.762 259.348 197.625 259.348 197.352C259.348 196.75 259.184 196.094 258.855 195.383C258.555 194.645 258.09 194.002 257.461 193.455C256.832 192.908 256.039 192.635 255.082 192.635C254.207 192.635 253.455 192.936 252.826 193.537C252.197 194.111 251.719 194.781 251.391 195.547C251.062 196.285 250.898 196.928 250.898 197.475C250.898 197.666 250.98 197.762 251.145 197.762ZM271.775 209.287C270.408 209.287 269.26 208.836 268.33 207.934C267.428 207.031 266.977 205.746 266.977 204.078V193.66H264.598C264.461 193.66 264.393 193.373 264.393 192.799C264.393 192.635 264.406 192.539 264.434 192.512C265.254 192.129 266.115 191.404 267.018 190.338C267.646 189.6 268.111 188.957 268.412 188.41C268.74 187.863 268.904 187.535 268.904 187.426C269.725 187.426 270.135 187.494 270.135 187.631V191.691L273.375 191.732H275.672C275.891 191.732 276 191.855 276 192.102C276 192.621 275.863 193.141 275.59 193.66H270.135V203.709C270.135 204.803 270.408 205.678 270.955 206.334C271.529 206.99 272.268 207.318 273.17 207.318C274.018 207.318 274.865 207.059 275.713 206.539C275.795 206.484 275.918 206.607 276.082 206.908C276.246 207.182 276.314 207.332 276.287 207.359C275.877 207.797 275.248 208.234 274.4 208.672C273.553 209.082 272.678 209.287 271.775 209.287ZM278.092 209.123C277.982 209.014 277.928 208.781 277.928 208.426C277.928 208.098 277.982 207.934 278.092 207.934C278.311 207.934 278.611 207.893 278.994 207.811C279.377 207.729 279.732 207.619 280.061 207.482C280.389 207.346 280.566 207.223 280.594 207.113C280.703 206.73 280.771 206.293 280.799 205.801C280.854 205.309 280.881 204.789 280.881 204.242V196.49C280.881 195.451 280.689 194.713 280.307 194.275C280.033 193.947 279.705 193.729 279.322 193.619C278.967 193.51 278.639 193.455 278.338 193.455C278.064 193.428 277.928 193.387 277.928 193.332C277.928 192.676 278.01 192.334 278.174 192.307C281.154 191.842 282.877 191.541 283.342 191.404L284.039 191.199C284.148 191.172 284.217 191.281 284.244 191.527C284.271 191.773 284.271 191.951 284.244 192.061L283.998 194.111C284.49 193.373 285.16 192.689 286.008 192.061C286.883 191.404 287.744 191.076 288.592 191.076C290.178 191.076 291.244 191.473 291.791 192.266C291.791 193.223 291.641 193.92 291.34 194.357C291.039 194.795 290.67 195.014 290.232 195.014C289.74 195.014 289.289 194.781 288.879 194.316C288.469 193.852 287.908 193.619 287.197 193.619C286.65 193.619 286.131 193.811 285.639 194.193C285.146 194.549 284.75 195.014 284.449 195.588C284.176 196.135 284.039 196.709 284.039 197.311V203.463C284.039 204.256 284.066 204.953 284.121 205.555C284.176 206.156 284.258 206.676 284.367 207.113C284.422 207.223 284.613 207.346 284.941 207.482C285.27 207.619 285.625 207.729 286.008 207.811C286.418 207.893 286.705 207.934 286.869 207.934C286.951 207.934 287.006 208.098 287.033 208.426C287.061 208.754 287.047 208.986 286.992 209.123L282.562 208.918L278.092 209.123ZM297.082 218.311C296.508 218.311 296.084 218.133 295.811 217.777C295.537 217.422 295.4 217.066 295.4 216.711C295.4 216.137 295.592 215.699 295.975 215.398C298.244 215.398 299.748 214.223 300.486 211.871C300.623 211.461 300.787 210.969 300.979 210.395C301.17 209.82 301.32 209.355 301.43 209L295.564 194.645C295.428 194.316 295.291 194.043 295.154 193.824C295.018 193.578 294.881 193.387 294.744 193.25C294.498 193.004 294.115 192.799 293.596 192.635C293.104 192.471 292.707 192.389 292.406 192.389C292.297 192.389 292.242 192.211 292.242 191.855C292.242 191.527 292.297 191.309 292.406 191.199C293.145 191.227 293.869 191.268 294.58 191.322C295.318 191.35 296.07 191.363 296.836 191.363C297.711 191.363 298.463 191.35 299.092 191.322C299.721 191.268 300.295 191.227 300.814 191.199C300.869 191.418 300.896 191.623 300.896 191.814C300.896 192.197 300.842 192.389 300.732 192.389C300.623 192.389 300.418 192.43 300.117 192.512C299.844 192.594 299.57 192.703 299.297 192.84C299.023 192.949 298.859 193.086 298.805 193.25V193.332C298.805 193.797 300.268 197.365 303.193 204.037L306.311 195.055C306.502 194.508 306.598 194.084 306.598 193.783C306.598 193.373 306.379 193.045 305.941 192.799C305.531 192.525 304.971 192.389 304.26 192.389C304.15 192.389 304.096 192.211 304.096 191.855C304.096 191.527 304.15 191.309 304.26 191.199C304.615 191.227 305.148 191.268 305.859 191.322C306.57 191.377 307.254 191.404 307.91 191.404C308.512 191.404 309.168 191.377 309.879 191.322C310.59 191.268 311.123 191.227 311.479 191.199C311.533 191.418 311.561 191.623 311.561 191.814C311.561 192.197 311.506 192.389 311.396 192.389C311.041 192.389 310.562 192.512 309.961 192.758C309.359 193.004 308.949 193.4 308.73 193.947L301.389 213.758C300.76 215.453 300.049 216.629 299.256 217.285C298.463 217.969 297.738 218.311 297.082 218.311ZM329.812 209.246C328.883 209.246 327.967 209.164 327.064 209C326.189 208.809 325.615 208.713 325.342 208.713C325.096 208.713 324.795 208.795 324.439 208.959C324.084 209.096 323.865 209.164 323.783 209.164C323.674 209.164 323.496 209.123 323.25 209.041C323.031 208.959 322.922 208.863 322.922 208.754C322.922 208.59 323.004 208.07 323.168 207.195C323.332 206.293 323.414 205.049 323.414 203.463V186.482C323.414 185.553 323.332 184.678 323.168 183.857C323.059 183.42 322.361 183.201 321.076 183.201H320.707C320.543 183.201 320.461 183.051 320.461 182.75C320.461 182.312 320.543 182.094 320.707 182.094C322.238 181.957 323.441 181.752 324.316 181.479C325.219 181.205 325.861 180.932 326.244 180.658L326.408 180.535H326.49C326.6 180.535 326.709 180.617 326.818 180.781C326.928 180.918 326.996 181.055 327.023 181.191C326.723 182.094 326.572 183.283 326.572 184.76V191.938C326.572 192.238 326.613 192.389 326.695 192.389C326.723 192.389 326.736 192.389 326.736 192.389C326.764 192.361 326.791 192.348 326.818 192.348C327.201 192.074 327.789 191.787 328.582 191.486C329.375 191.186 330.072 191.035 330.674 191.035C332.424 191.035 333.928 191.459 335.186 192.307C336.443 193.127 337.4 194.18 338.057 195.465C338.74 196.75 339.082 198.076 339.082 199.443C339.082 200.756 338.822 202 338.303 203.176C337.783 204.352 337.072 205.404 336.17 206.334C335.295 207.236 334.297 207.947 333.176 208.467C332.082 208.986 330.961 209.246 329.812 209.246ZM330.592 207.523C331.631 207.523 332.52 207.182 333.258 206.498C333.996 205.814 334.557 204.926 334.939 203.832C335.35 202.711 335.555 201.535 335.555 200.305C335.555 198.145 334.98 196.395 333.832 195.055C332.711 193.715 331.221 193.045 329.361 193.045C328.596 193.045 327.939 193.264 327.393 193.701C326.846 194.111 326.572 194.713 326.572 195.506V205.062C326.572 205.91 326.969 206.539 327.762 206.949C328.582 207.332 329.525 207.523 330.592 207.523ZM344.332 218.311C343.758 218.311 343.334 218.133 343.061 217.777C342.787 217.422 342.65 217.066 342.65 216.711C342.65 216.137 342.842 215.699 343.225 215.398C345.494 215.398 346.998 214.223 347.736 211.871C347.873 211.461 348.037 210.969 348.229 210.395C348.42 209.82 348.57 209.355 348.68 209L342.814 194.645C342.678 194.316 342.541 194.043 342.404 193.824C342.268 193.578 342.131 193.387 341.994 193.25C341.748 193.004 341.365 192.799 340.846 192.635C340.354 192.471 339.957 192.389 339.656 192.389C339.547 192.389 339.492 192.211 339.492 191.855C339.492 191.527 339.547 191.309 339.656 191.199C340.395 191.227 341.119 191.268 341.83 191.322C342.568 191.35 343.32 191.363 344.086 191.363C344.961 191.363 345.713 191.35 346.342 191.322C346.971 191.268 347.545 191.227 348.064 191.199C348.119 191.418 348.146 191.623 348.146 191.814C348.146 192.197 348.092 192.389 347.982 192.389C347.873 192.389 347.668 192.43 347.367 192.512C347.094 192.594 346.82 192.703 346.547 192.84C346.273 192.949 346.109 193.086 346.055 193.25V193.332C346.055 193.797 347.518 197.365 350.443 204.037L353.561 195.055C353.752 194.508 353.848 194.084 353.848 193.783C353.848 193.373 353.629 193.045 353.191 192.799C352.781 192.525 352.221 192.389 351.51 192.389C351.4 192.389 351.346 192.211 351.346 191.855C351.346 191.527 351.4 191.309 351.51 191.199C351.865 191.227 352.398 191.268 353.109 191.322C353.82 191.377 354.504 191.404 355.16 191.404C355.762 191.404 356.418 191.377 357.129 191.322C357.84 191.268 358.373 191.227 358.729 191.199C358.783 191.418 358.811 191.623 358.811 191.814C358.811 192.197 358.756 192.389 358.646 192.389C358.291 192.389 357.812 192.512 357.211 192.758C356.609 193.004 356.199 193.4 355.98 193.947L348.639 213.758C348.01 215.453 347.299 216.629 346.506 217.285C345.713 217.969 344.988 218.311 344.332 218.311ZM377.514 209.41C376.857 209.41 376.16 209.355 375.422 209.246C374.684 209.164 374.068 209.068 373.576 208.959C372.564 208.768 371.826 208.617 371.361 208.508C370.924 208.371 370.514 208.275 370.131 208.221C369.775 206.525 369.516 205.145 369.352 204.078C369.188 202.984 369.105 202.191 369.105 201.699C369.105 201.535 369.324 201.453 369.762 201.453C370.254 201.453 370.596 201.576 370.787 201.822C371.744 205.76 374.014 207.729 377.596 207.729C378.963 207.729 380.125 207.318 381.082 206.498C382.039 205.678 382.518 204.516 382.518 203.012C382.518 202.52 382.408 201.918 382.189 201.207C381.998 200.496 381.547 199.881 380.836 199.361C380.289 198.951 379.838 198.65 379.482 198.459C379.127 198.24 378.771 198.049 378.416 197.885C378.061 197.693 377.609 197.434 377.062 197.105L375.422 196.121C374.574 195.602 373.727 195.014 372.879 194.357C372.031 193.674 371.32 192.881 370.746 191.979C370.199 191.076 369.926 190.051 369.926 188.902C369.926 187.453 370.295 186.195 371.033 185.129C371.799 184.035 372.783 183.188 373.986 182.586C375.217 181.984 376.543 181.684 377.965 181.684C378.566 181.684 379.127 181.725 379.646 181.807C380.193 181.861 380.645 181.93 381 182.012C381.82 182.203 382.395 182.354 382.723 182.463C383.078 182.572 383.557 182.695 384.158 182.832C384.486 184.254 384.65 186.209 384.65 188.697C384.65 188.889 384.514 188.984 384.24 188.984C383.557 188.984 383.201 188.848 383.174 188.574C383.037 187.754 382.736 186.947 382.271 186.154C381.807 185.361 381.178 184.705 380.385 184.186C379.592 183.639 378.648 183.365 377.555 183.365C376.434 183.365 375.559 183.584 374.93 184.021C374.301 184.432 373.85 184.965 373.576 185.621C373.33 186.25 373.207 186.92 373.207 187.631C373.207 188.314 373.371 188.998 373.699 189.682C374.027 190.365 374.506 190.939 375.135 191.404C375.982 192.033 376.83 192.621 377.678 193.168C378.553 193.715 379.455 194.275 380.385 194.85C381.26 195.396 382.135 196.012 383.01 196.695C383.885 197.352 384.609 198.104 385.184 198.951C385.785 199.799 386.086 200.783 386.086 201.904C386.086 203.354 385.689 204.652 384.896 205.801C384.104 206.922 383.051 207.811 381.738 208.467C380.453 209.096 379.045 209.41 377.514 209.41ZM388.465 209.123C388.355 209.014 388.301 208.781 388.301 208.426C388.301 208.098 388.355 207.934 388.465 207.934C388.684 207.934 388.984 207.893 389.367 207.811C389.75 207.729 390.105 207.619 390.434 207.482C390.762 207.346 390.939 207.223 390.967 207.113C391.158 206.375 391.254 205.432 391.254 204.283V186.482C391.254 185.553 391.172 184.678 391.008 183.857C390.898 183.42 390.201 183.201 388.916 183.201H388.547C388.383 183.201 388.301 183.051 388.301 182.75C388.301 182.312 388.383 182.094 388.547 182.094C389.941 181.957 391.117 181.738 392.074 181.438C393.031 181.109 393.688 180.85 394.043 180.658L394.248 180.535H394.33C394.439 180.535 394.549 180.617 394.658 180.781C394.768 180.918 394.836 181.055 394.863 181.191C394.562 182.094 394.412 183.283 394.412 184.76V193.742C394.412 193.852 394.439 193.906 394.494 193.906C394.521 193.906 394.562 193.879 394.617 193.824C395.027 193.387 395.547 192.963 396.176 192.553C396.832 192.115 397.529 191.76 398.268 191.486C399.006 191.186 399.703 191.035 400.359 191.035C402.191 191.035 403.504 191.691 404.297 193.004C405.09 194.316 405.486 196.34 405.486 199.074V203.504C405.486 204.27 405.514 204.953 405.568 205.555C405.623 206.156 405.705 206.676 405.814 207.113C405.869 207.223 406.061 207.346 406.389 207.482C406.717 207.619 407.072 207.729 407.455 207.811C407.838 207.893 408.111 207.934 408.275 207.934C408.357 207.934 408.412 208.098 408.439 208.426C408.467 208.754 408.453 208.986 408.398 209.123L404.01 208.918L399.703 209.123C399.594 209.014 399.539 208.781 399.539 208.426C399.539 208.098 399.594 207.934 399.703 207.934C399.922 207.934 400.209 207.893 400.564 207.811C400.92 207.729 401.248 207.619 401.549 207.482C401.85 207.346 402.014 207.223 402.041 207.113C402.15 206.73 402.219 206.293 402.246 205.801C402.301 205.309 402.328 204.789 402.328 204.242V199.895C402.328 198.199 402.178 196.9 401.877 195.998C401.576 195.068 401.111 194.426 400.482 194.07C399.854 193.715 399.047 193.537 398.062 193.537C397.516 193.537 396.955 193.701 396.381 194.029C395.834 194.33 395.369 194.686 394.986 195.096C394.604 195.506 394.412 195.875 394.412 196.203V203.463C394.412 204.256 394.439 204.953 394.494 205.555C394.549 206.156 394.631 206.676 394.74 207.113C394.795 207.223 394.986 207.346 395.314 207.482C395.643 207.619 395.998 207.729 396.381 207.811C396.764 207.893 397.037 207.934 397.201 207.934C397.283 207.934 397.338 208.098 397.365 208.426C397.393 208.754 397.379 208.986 397.324 209.123L392.936 208.918L388.465 209.123ZM415.248 209.287C413.99 209.287 412.951 208.959 412.131 208.303C411.311 207.619 410.9 206.607 410.9 205.268C410.9 203.627 411.967 202.26 414.1 201.166C415.029 200.701 415.945 200.332 416.848 200.059C417.777 199.785 418.707 199.471 419.637 199.115C419.883 199.033 420.006 198.828 420.006 198.5V195.424C420.006 194.549 419.732 193.879 419.186 193.414C418.639 192.922 417.982 192.676 417.217 192.676C416.396 192.676 415.713 192.963 415.166 193.537C414.619 194.084 414.346 194.809 414.346 195.711C414.346 196.668 413.785 197.146 412.664 197.146C411.871 197.146 411.338 196.887 411.064 196.367C411.064 195.793 411.297 195.205 411.762 194.604C412.254 193.975 412.883 193.4 413.648 192.881C414.414 192.361 415.248 191.938 416.15 191.609C417.08 191.281 417.996 191.117 418.898 191.117C420.402 191.117 421.482 191.486 422.139 192.225C422.795 192.936 423.123 194.098 423.123 195.711V205.186C423.123 205.76 423.273 206.238 423.574 206.621C423.875 207.004 424.285 207.195 424.805 207.195C425.16 207.195 425.639 207.004 426.24 206.621C426.35 206.621 426.404 206.73 426.404 206.949C426.404 207.305 426.336 207.592 426.199 207.811C425.078 208.768 424.121 209.246 423.328 209.246C422.699 209.246 422.098 208.986 421.523 208.467C420.949 207.947 420.553 207.4 420.334 206.826C420.197 206.936 420.02 207.086 419.801 207.277C419.609 207.441 419.445 207.578 419.309 207.688C418.734 208.125 418.105 208.508 417.422 208.836C416.766 209.137 416.041 209.287 415.248 209.287ZM416.807 206.949C417.572 206.949 418.297 206.73 418.98 206.293C419.664 205.855 420.006 205.391 420.006 204.898V200.674C419.295 200.947 418.611 201.193 417.955 201.412C417.326 201.631 416.82 201.809 416.438 201.945C415.945 202.137 415.467 202.479 415.002 202.971C414.564 203.463 414.346 204.023 414.346 204.652C414.346 205.473 414.592 206.061 415.084 206.416C415.604 206.771 416.178 206.949 416.807 206.949ZM428.127 209.123C428.018 209.014 427.963 208.781 427.963 208.426C427.963 208.098 428.018 207.934 428.127 207.934C428.346 207.934 428.646 207.893 429.029 207.811C429.412 207.729 429.768 207.619 430.096 207.482C430.424 207.346 430.602 207.223 430.629 207.113C430.738 206.73 430.807 206.293 430.834 205.801C430.889 205.309 430.916 204.789 430.916 204.242V196.49C430.916 195.451 430.725 194.713 430.342 194.275C430.068 193.92 429.74 193.701 429.357 193.619C428.975 193.51 428.646 193.455 428.373 193.455C428.1 193.428 427.963 193.387 427.963 193.332C427.963 192.676 428.045 192.334 428.209 192.307C429.658 192.088 430.766 191.91 431.531 191.773C432.297 191.609 432.98 191.459 433.582 191.322L434.074 191.199C434.184 191.172 434.252 191.281 434.279 191.527C434.307 191.773 434.307 191.951 434.279 192.061C434.225 192.607 434.17 193.127 434.115 193.619C434.088 194.111 434.074 194.576 434.074 195.014V203.463C434.074 204.256 434.102 204.953 434.156 205.555C434.211 206.156 434.293 206.676 434.402 207.113C434.457 207.223 434.648 207.346 434.977 207.482C435.305 207.619 435.66 207.729 436.043 207.811C436.426 207.893 436.699 207.934 436.863 207.934C436.945 207.934 437 208.098 437.027 208.426C437.055 208.754 437.041 208.986 436.986 209.123L432.598 208.918L428.127 209.123ZM432.188 186.729C431.641 186.729 431.162 186.523 430.752 186.113C430.342 185.703 430.137 185.225 430.137 184.678C430.137 184.104 430.342 183.625 430.752 183.242C431.162 182.832 431.641 182.627 432.188 182.627C432.762 182.627 433.24 182.832 433.623 183.242C434.033 183.625 434.238 184.104 434.238 184.678C434.238 185.225 434.033 185.703 433.623 186.113C433.24 186.523 432.762 186.729 432.188 186.729ZM438.996 209.123C438.887 209.014 438.832 208.781 438.832 208.426C438.832 208.098 438.887 207.934 438.996 207.934C439.215 207.934 439.516 207.893 439.898 207.811C440.281 207.729 440.637 207.619 440.965 207.482C441.293 207.346 441.471 207.223 441.498 207.113C441.607 206.73 441.676 206.293 441.703 205.801C441.758 205.309 441.785 204.789 441.785 204.242V186.482C441.785 185.553 441.703 184.678 441.539 183.857C441.43 183.42 440.732 183.201 439.447 183.201H439.078C438.914 183.201 438.832 183.051 438.832 182.75C438.832 182.312 438.914 182.094 439.078 182.094C440.719 181.902 441.936 181.684 442.729 181.438C443.521 181.191 444.068 180.973 444.369 180.781L444.779 180.535H444.861C444.971 180.535 445.08 180.617 445.189 180.781C445.299 180.918 445.367 181.055 445.395 181.191C445.094 182.094 444.943 183.283 444.943 184.76V203.463C444.943 204.256 444.971 204.953 445.025 205.555C445.08 206.156 445.162 206.676 445.271 207.113C445.326 207.223 445.518 207.346 445.846 207.482C446.174 207.619 446.529 207.729 446.912 207.811C447.295 207.893 447.568 207.934 447.732 207.934C447.814 207.934 447.869 208.098 447.896 208.426C447.924 208.754 447.91 208.986 447.855 209.123L443.467 208.918L438.996 209.123ZM449.127 218.475C448.936 218.338 448.771 218.133 448.635 217.859C448.553 217.723 448.539 217.627 448.594 217.572L449.086 217.326C449.414 217.162 449.783 216.875 450.193 216.465C450.631 216.055 451.068 215.508 451.506 214.824C451.943 214.141 452.312 213.129 452.613 211.789C452.914 210.449 453.064 208.904 453.064 207.154V196.49C453.064 195.451 452.873 194.713 452.49 194.275C452.217 193.947 451.889 193.729 451.506 193.619C451.15 193.51 450.822 193.441 450.521 193.414C450.248 193.387 450.111 193.359 450.111 193.332C450.111 192.676 450.193 192.334 450.357 192.307C451.807 192.088 452.996 191.896 453.926 191.732C454.855 191.541 455.416 191.418 455.607 191.363L456.1 191.199H456.223C456.332 191.199 456.4 191.322 456.428 191.568C456.455 191.787 456.455 191.951 456.428 192.061C456.373 192.607 456.318 193.127 456.264 193.619C456.236 194.111 456.223 194.576 456.223 195.014V206.211C456.223 209.656 455.689 212.227 454.623 213.922C453.939 214.988 453.064 215.932 451.998 216.752C450.959 217.572 450.002 218.146 449.127 218.475ZM454.336 186.729C453.789 186.729 453.311 186.523 452.9 186.113C452.49 185.703 452.285 185.225 452.285 184.678C452.285 184.104 452.49 183.625 452.9 183.242C453.311 182.832 453.789 182.627 454.336 182.627C454.91 182.627 455.389 182.832 455.771 183.242C456.182 183.625 456.387 184.104 456.387 184.678C456.387 185.225 456.182 185.703 455.771 186.113C455.389 186.523 454.91 186.729 454.336 186.729ZM465.287 209.287C464.029 209.287 462.99 208.959 462.17 208.303C461.35 207.619 460.939 206.607 460.939 205.268C460.939 203.627 462.006 202.26 464.139 201.166C465.068 200.701 465.984 200.332 466.887 200.059C467.816 199.785 468.746 199.471 469.676 199.115C469.922 199.033 470.045 198.828 470.045 198.5V195.424C470.045 194.549 469.771 193.879 469.225 193.414C468.678 192.922 468.021 192.676 467.256 192.676C466.436 192.676 465.752 192.963 465.205 193.537C464.658 194.084 464.385 194.809 464.385 195.711C464.385 196.668 463.824 197.146 462.703 197.146C461.91 197.146 461.377 196.887 461.104 196.367C461.104 195.793 461.336 195.205 461.801 194.604C462.293 193.975 462.922 193.4 463.688 192.881C464.453 192.361 465.287 191.938 466.189 191.609C467.119 191.281 468.035 191.117 468.938 191.117C470.441 191.117 471.521 191.486 472.178 192.225C472.834 192.936 473.162 194.098 473.162 195.711V205.186C473.162 205.76 473.312 206.238 473.613 206.621C473.914 207.004 474.324 207.195 474.844 207.195C475.199 207.195 475.678 207.004 476.279 206.621C476.389 206.621 476.443 206.73 476.443 206.949C476.443 207.305 476.375 207.592 476.238 207.811C475.117 208.768 474.16 209.246 473.367 209.246C472.738 209.246 472.137 208.986 471.562 208.467C470.988 207.947 470.592 207.4 470.373 206.826C470.236 206.936 470.059 207.086 469.84 207.277C469.648 207.441 469.484 207.578 469.348 207.688C468.773 208.125 468.145 208.508 467.461 208.836C466.805 209.137 466.08 209.287 465.287 209.287ZM466.846 206.949C467.611 206.949 468.336 206.73 469.02 206.293C469.703 205.855 470.045 205.391 470.045 204.898V200.674C469.334 200.947 468.65 201.193 467.994 201.412C467.365 201.631 466.859 201.809 466.477 201.945C465.984 202.137 465.506 202.479 465.041 202.971C464.604 203.463 464.385 204.023 464.385 204.652C464.385 205.473 464.631 206.061 465.123 206.416C465.643 206.771 466.217 206.949 466.846 206.949ZM484.811 218.311C484.51 218.311 484.182 218.256 483.826 218.146C483.471 218.037 483.184 217.928 482.965 217.818L482.678 217.654C482.35 217.271 482.186 216.766 482.186 216.137C482.186 215.535 482.445 215.043 482.965 214.66C483.457 214.277 484.045 214.086 484.729 214.086C485.221 214.086 485.781 214.387 486.41 214.988C487.039 215.562 487.518 215.85 487.846 215.85C488.611 215.85 489.391 215.098 490.184 213.594C490.566 212.855 490.881 211.803 491.127 210.436C491.373 209.096 491.496 207.564 491.496 205.842V187.549C491.496 186.701 491.469 185.977 491.414 185.375C491.387 184.746 491.318 184.254 491.209 183.898C491.154 183.734 490.949 183.598 490.594 183.488C490.238 183.352 489.855 183.242 489.445 183.16C489.035 183.078 488.707 183.037 488.461 183.037C488.352 183.037 488.297 182.859 488.297 182.504C488.297 182.176 488.352 181.957 488.461 181.848C488.707 181.848 489.117 181.875 489.691 181.93C490.293 181.957 490.936 181.998 491.619 182.053C492.303 182.08 492.891 182.094 493.383 182.094C494.258 182.094 495.133 182.066 496.008 182.012C496.883 181.93 497.594 181.875 498.141 181.848C498.195 182.066 498.223 182.271 498.223 182.463C498.223 182.846 498.168 183.037 498.059 183.037C497.895 183.037 497.607 183.092 497.197 183.201C496.787 183.283 496.404 183.393 496.049 183.529C495.693 183.639 495.488 183.762 495.434 183.898C495.188 184.828 495.064 186.1 495.064 187.713V205.514C495.064 207.236 494.805 208.863 494.285 210.395C493.793 211.953 493.082 213.32 492.152 214.496C491.25 215.672 490.17 216.602 488.912 217.285C487.654 217.969 486.287 218.311 484.811 218.311ZM505.236 209.287C503.979 209.287 502.939 208.959 502.119 208.303C501.299 207.619 500.889 206.607 500.889 205.268C500.889 203.627 501.955 202.26 504.088 201.166C505.018 200.701 505.934 200.332 506.836 200.059C507.766 199.785 508.695 199.471 509.625 199.115C509.871 199.033 509.994 198.828 509.994 198.5V195.424C509.994 194.549 509.721 193.879 509.174 193.414C508.627 192.922 507.971 192.676 507.205 192.676C506.385 192.676 505.701 192.963 505.154 193.537C504.607 194.084 504.334 194.809 504.334 195.711C504.334 196.668 503.773 197.146 502.652 197.146C501.859 197.146 501.326 196.887 501.053 196.367C501.053 195.793 501.285 195.205 501.75 194.604C502.242 193.975 502.871 193.4 503.637 192.881C504.402 192.361 505.236 191.938 506.139 191.609C507.068 191.281 507.984 191.117 508.887 191.117C510.391 191.117 511.471 191.486 512.127 192.225C512.783 192.936 513.111 194.098 513.111 195.711V205.186C513.111 205.76 513.262 206.238 513.562 206.621C513.863 207.004 514.273 207.195 514.793 207.195C515.148 207.195 515.627 207.004 516.229 206.621C516.338 206.621 516.393 206.73 516.393 206.949C516.393 207.305 516.324 207.592 516.188 207.811C515.066 208.768 514.109 209.246 513.316 209.246C512.688 209.246 512.086 208.986 511.512 208.467C510.938 207.947 510.541 207.4 510.322 206.826C510.186 206.936 510.008 207.086 509.789 207.277C509.598 207.441 509.434 207.578 509.297 207.688C508.723 208.125 508.094 208.508 507.41 208.836C506.754 209.137 506.029 209.287 505.236 209.287ZM506.795 206.949C507.561 206.949 508.285 206.73 508.969 206.293C509.652 205.855 509.994 205.391 509.994 204.898V200.674C509.283 200.947 508.6 201.193 507.943 201.412C507.314 201.631 506.809 201.809 506.426 201.945C505.934 202.137 505.455 202.479 504.99 202.971C504.553 203.463 504.334 204.023 504.334 204.652C504.334 205.473 504.58 206.061 505.072 206.416C505.592 206.771 506.166 206.949 506.795 206.949ZM530.953 209.246C530.789 209.246 530.707 209.014 530.707 208.549V208.057C530.707 207.92 530.652 207.865 530.543 207.893C529.039 208.74 527.59 209.164 526.195 209.164C524.691 209.164 523.324 208.795 522.094 208.057C520.891 207.291 519.934 206.293 519.223 205.062C518.539 203.805 518.197 202.438 518.197 200.961C518.197 199.648 518.443 198.391 518.936 197.188C519.455 195.984 520.139 194.918 520.986 193.988C521.861 193.031 522.846 192.293 523.939 191.773C525.033 191.227 526.168 190.953 527.344 190.953C528.52 190.953 529.545 191.186 530.42 191.65C530.611 191.65 530.707 191.404 530.707 190.912V186.482C530.707 185.553 530.625 184.678 530.461 183.857C530.352 183.42 529.654 183.201 528.369 183.201H528C527.836 183.201 527.754 183.051 527.754 182.75C527.754 182.312 527.836 182.094 528 182.094C529.531 181.957 530.734 181.752 531.609 181.479C532.512 181.205 533.154 180.932 533.537 180.658L533.701 180.535H533.783C533.893 180.535 534.002 180.617 534.111 180.781C534.221 180.918 534.289 181.055 534.316 181.191C534.016 182.094 533.865 183.283 533.865 184.76V203.217C533.865 204.502 533.947 205.541 534.111 206.334C534.193 206.607 534.426 206.785 534.809 206.867C535.219 206.922 535.643 206.977 536.08 207.031L536.449 207.072C536.531 207.1 536.572 207.264 536.572 207.564C536.572 207.975 536.49 208.18 536.326 208.18C535.424 208.234 534.494 208.385 533.537 208.631C532.58 208.85 531.842 209.027 531.322 209.164L530.953 209.246ZM527.754 207.154C528.684 207.154 529.408 206.949 529.928 206.539C530.447 206.102 530.707 205.527 530.707 204.816V195.055C530.707 194.48 530.393 193.947 529.764 193.455C529.162 192.936 528.178 192.676 526.811 192.676C525.771 192.676 524.869 193.004 524.104 193.66C523.338 194.316 522.75 195.191 522.34 196.285C521.93 197.352 521.725 198.514 521.725 199.771C521.725 201.084 521.957 202.301 522.422 203.422C522.914 204.543 523.611 205.445 524.514 206.129C525.416 206.812 526.496 207.154 527.754 207.154ZM547.523 209.287C545.883 209.287 544.379 208.877 543.012 208.057C541.645 207.236 540.551 206.129 539.73 204.734C538.938 203.34 538.541 201.809 538.541 200.141C538.541 198.445 538.924 196.914 539.689 195.547C540.482 194.18 541.549 193.1 542.889 192.307C544.229 191.486 545.746 191.076 547.441 191.076C549.082 191.076 550.572 191.486 551.912 192.307C553.279 193.127 554.359 194.221 555.152 195.588C555.973 196.955 556.383 198.473 556.383 200.141C556.383 201.809 555.986 203.34 555.193 204.734C554.4 206.129 553.334 207.236 551.994 208.057C550.682 208.877 549.191 209.287 547.523 209.287ZM547.893 207.688C548.877 207.688 549.738 207.373 550.477 206.744C551.215 206.115 551.789 205.268 552.199 204.201C552.637 203.135 552.855 201.973 552.855 200.715C552.855 199.238 552.582 197.898 552.035 196.695C551.488 195.465 550.764 194.494 549.861 193.783C548.986 193.045 548.029 192.676 546.99 192.676C546.033 192.676 545.172 192.99 544.406 193.619C543.668 194.221 543.094 195.041 542.684 196.08C542.273 197.092 542.068 198.24 542.068 199.525C542.068 201.002 542.328 202.369 542.848 203.627C543.395 204.857 544.105 205.842 544.98 206.58C545.883 207.318 546.854 207.688 547.893 207.688ZM559.295 209.123C559.186 209.014 559.131 208.781 559.131 208.426C559.131 208.098 559.186 207.934 559.295 207.934C559.514 207.934 559.814 207.893 560.197 207.811C560.58 207.729 560.936 207.619 561.264 207.482C561.592 207.346 561.77 207.223 561.797 207.113C561.906 206.73 561.975 206.293 562.002 205.801C562.057 205.309 562.084 204.789 562.084 204.242V196.49C562.084 195.451 561.893 194.713 561.51 194.275C561.236 193.947 560.908 193.729 560.525 193.619C560.17 193.51 559.842 193.455 559.541 193.455C559.268 193.428 559.131 193.387 559.131 193.332C559.131 192.676 559.213 192.334 559.377 192.307C560.826 192.088 562.002 191.896 562.904 191.732C563.807 191.541 564.367 191.418 564.586 191.363L565.242 191.199C565.352 191.172 565.42 191.281 565.447 191.527C565.475 191.773 565.475 191.951 565.447 192.061C565.393 192.443 565.352 192.771 565.324 193.045C565.297 193.318 565.283 193.537 565.283 193.701C565.283 193.811 565.311 193.865 565.365 193.865C565.393 193.865 565.434 193.838 565.488 193.783C566.117 193.127 566.965 192.512 568.031 191.938C569.125 191.336 570.164 191.035 571.148 191.035C573.062 191.035 574.402 191.719 575.168 193.086C575.934 194.453 576.316 196.668 576.316 199.73V203.463C576.316 204.256 576.344 204.953 576.398 205.555C576.453 206.156 576.535 206.676 576.645 207.113C576.699 207.223 576.891 207.346 577.219 207.482C577.547 207.619 577.902 207.729 578.285 207.811C578.668 207.893 578.941 207.934 579.105 207.934C579.188 207.934 579.242 208.098 579.27 208.426C579.297 208.754 579.283 208.986 579.229 209.123L574.84 208.918L570.533 209.123C570.424 209.014 570.369 208.781 570.369 208.426C570.369 208.098 570.424 207.934 570.533 207.934C570.752 207.934 571.039 207.893 571.395 207.811C571.75 207.729 572.078 207.619 572.379 207.482C572.68 207.346 572.844 207.223 572.871 207.113C572.98 206.73 573.049 206.293 573.076 205.801C573.131 205.309 573.158 204.789 573.158 204.242V200.141C573.158 197.598 572.83 195.861 572.174 194.932C571.518 194.002 570.451 193.537 568.975 193.537C568.4 193.537 567.826 193.701 567.252 194.029C566.678 194.33 566.199 194.686 565.816 195.096C565.434 195.506 565.242 195.889 565.242 196.244V203.463C565.242 204.256 565.27 204.953 565.324 205.555C565.379 206.156 565.461 206.676 565.57 207.113C565.625 207.223 565.816 207.346 566.145 207.482C566.473 207.619 566.828 207.729 567.211 207.811C567.594 207.893 567.867 207.934 568.031 207.934C568.113 207.934 568.168 208.098 568.195 208.426C568.223 208.754 568.209 208.986 568.154 209.123L563.766 208.918L559.295 209.123Z" fill="url(#paint1_linear_2902_3)"/>
<defs>
<linearGradient id="paint0_linear_2902_3" x1="0" y1="69.5" x2="752" y2="69.5" gradientUnits="userSpaceOnUse">
<stop/>
<stop offset="1" stop-color="#09BCD8"/>
</linearGradient>
<linearGradient id="paint1_linear_2902_3" x1="171" y1="196.5" x2="581" y2="196.5" gradientUnits="userSpaceOnUse">
<stop/>
<stop offset="1" stop-color="#09BCD8"/>
</linearGradient>
</defs>
</svg>
